<svg width="169" height="37" viewBox="0 0 169 37" fill="none" xmlns="http://www.w3.org/2000/svg">
<g id="Layer_1" clip-path="url(#clip0_359_1765)">
<path id="Vector" d="M31.4286 13.1159V9.46957L15.9651 0.439941L0.5 9.46957V19.9982L12.8949 27.1556L14.4125 24.4966L3.61889 18.1943V13.1115L26.751 26.6187L15.9651 32.918L0.5 23.8795V27.5303L15.9651 36.5599L31.4286 27.5303V16.9972L17.8251 9.01452L16.2665 11.7463L28.3113 18.7788V23.8884L5.17758 10.3797L15.9651 4.08183L31.4286 13.1159Z" fill="#FF6C1A"/>
<g id="Vector_2">
<path d="M46.7248 14.9901L46.3016 14.9187C44.8495 14.6689 43.0412 14.3566 43.0001 13.0063C42.9864 12.5929 43.1325 12.233 43.4324 11.9326C43.9986 11.369 45.1037 11.0449 46.3899 11.0597C47.7157 11.0597 48.8299 11.259 49.9624 12.233L50.0979 12.349L51.0675 11.3393L50.932 11.2159C49.7767 10.1556 48.2485 9.61873 46.3914 9.61873C44.7018 9.59643 43.2238 10.0723 42.3684 10.908C41.7839 11.4791 41.4931 12.1959 41.5008 13.0361C41.5266 15.5597 44.0428 15.9686 46.2636 16.3315C48.46 16.6765 50.0126 17.0289 49.9715 18.4431C49.9 20.2752 47.492 20.473 46.4615 20.473C44.679 20.473 43.1127 19.7652 42.271 18.5814L42.1522 18.4134L41.0137 19.4023L41.1004 19.5332C42.1035 21.0381 44.0991 21.9363 46.4386 21.9363C47.6015 21.9363 51.4054 21.691 51.4952 18.5279C51.617 15.7902 48.7904 15.3262 46.7263 14.9886L46.7248 14.9901Z" fill="#231F20"/>
<path d="M64.5385 9.64401C62.4669 9.64401 60.6631 10.5422 59.5885 12.0784V9.80908H58.0664V26.5805H59.5641V19.5644C60.6099 21.0976 62.2918 21.9631 64.2737 21.9631C67.9877 21.9631 70.4826 19.4782 70.4826 15.7812C70.4826 12.0843 68.1521 9.77785 64.5385 9.6455V9.64401ZM64.2752 20.4983C61.6449 20.4983 59.6616 18.4803 59.6616 15.8036C59.6616 13.1268 61.6023 11.1088 64.2752 11.1088C66.5295 11.1088 68.9376 12.3357 68.9376 15.7812C68.9376 19.2268 66.5295 20.4998 64.2752 20.4998V20.4983Z" fill="#231F20"/>
<path d="M82.8774 21.9378C84.7771 21.9378 86.4119 21.1452 87.5398 19.6908V21.7504H89.0863V9.80759H87.5398V11.8836C86.523 10.4842 84.8273 9.66632 82.8774 9.66632C79.3384 9.66632 76.6701 12.294 76.6701 15.7783C76.6701 19.2625 79.3384 21.9363 82.8774 21.9363V21.9378ZM82.8774 11.1311C86.1501 11.1311 87.6418 13.5461 87.6418 15.7917C87.6418 17.0155 87.2186 18.1546 86.4515 18.9993C85.5884 19.9496 84.3524 20.4522 82.8774 20.4522C80.1756 20.4522 78.2151 18.4878 78.2151 15.7798C78.2151 13.0718 80.1756 11.1311 82.8774 11.1311Z" fill="#231F20"/>
<path d="M101.504 11.1296C102.212 11.1296 102.857 11.3021 103.423 11.6427L103.589 11.7423L104.297 10.4857L104.145 10.3965C103.312 9.90425 102.42 9.66632 101.506 9.69011C99.8814 9.69011 98.5221 10.3192 97.7397 11.4032L97.7032 9.80759H96.2328V21.7504H97.7793V14.8176C97.7793 12.7729 99.4172 11.1519 101.506 11.1296H101.504Z" fill="#231F20"/>
<path d="M119.331 21.4203L112.725 15.4511L118.636 10.1139V9.80759H116.818L111.485 14.6377V4.979H109.963V21.7504H111.485V16.3062L117.587 21.7504H119.331V21.4203Z" fill="#231F20"/>
<path d="M129.952 9.59643C126.355 9.59643 123.743 12.2063 123.743 15.8021C123.743 19.3979 126.295 21.914 129.952 21.914C133.608 21.914 136.159 19.4008 136.159 15.8021C136.159 12.2033 133.548 9.59643 129.952 9.59643ZM129.952 20.4269C127.192 20.4269 125.265 18.5249 125.265 15.8021C125.265 13.0792 127.236 11.0359 129.952 11.0359C132.667 11.0359 134.637 13.0405 134.637 15.8021C134.637 18.5636 132.71 20.4269 129.952 20.4269Z" fill="#231F20"/>
<path d="M152.353 16.4118C152.353 18.7302 150.685 20.4284 148.385 20.4507C147.129 20.4641 146.082 20.1117 145.385 19.4365C144.698 18.7718 144.35 17.8245 144.35 16.6229V9.7838H142.803V16.6452C142.803 19.8603 144.977 21.9363 148.342 21.9363C150.042 21.9125 151.479 21.2463 152.377 20.0879V21.7489H153.9V9.7838H152.353V16.4118Z" fill="#231F20"/>
<path d="M168.342 21.3103L168.5 21.2344L167.948 19.9644L167.772 20.0462C167.151 20.3377 166.533 20.4968 166.03 20.4968C164.358 20.4968 164.031 19.5837 164.031 18.0059V11.1296H168.062V9.80611H164.031V6.29359L162.509 6.44825V9.80611H159.99V11.1296H162.509V18.0059C162.509 20.6723 163.628 21.914 166.03 21.914C166.727 21.914 167.483 21.7162 168.342 21.3103Z" fill="#231F20"/>
<path d="M76.3033 27.9709H77.7006V31.537H78.5317V27.9709H79.929V27.2333H76.3033V27.9709Z" fill="#231F20"/>
<path d="M81.1757 31.537H84.4742V30.7369H82.0007V29.7659H84.3859V29.0089H82.0007V28.0185H84.4742V27.2319H81.1757V31.537Z" fill="#231F20"/>
<path d="M88.0817 30.8737C86.9933 30.8737 86.5717 30.1302 86.5641 29.4164C86.558 28.6966 87.0177 27.9219 88.0817 27.9219C88.4653 27.9219 88.8565 28.0512 89.1457 28.3278L89.6997 27.8059C89.2461 27.3687 88.6799 27.1486 88.0817 27.1486C86.4895 27.1486 85.7406 28.2922 85.7467 29.4179C85.7528 30.5377 86.4454 31.6381 88.0817 31.6381C88.7179 31.6381 89.3024 31.4359 89.7561 30.9987L89.1898 30.4395C88.9006 30.7221 88.4653 30.8767 88.0817 30.8767V30.8737Z" fill="#231F20"/>
<path d="M93.98 29.0535H91.814V27.2393H90.9829V31.5429H91.814V29.803H93.98V31.5429H94.805V27.2393H93.98V29.0535Z" fill="#231F20"/>
<path d="M100.111 28.9048C99.5831 28.8439 99.1295 28.7383 99.1295 28.3635C99.1295 28.0438 99.4248 27.791 100.043 27.791C100.521 27.791 100.936 28.0245 101.087 28.2713L101.748 27.9397C101.414 27.275 100.703 27.0846 100.017 27.0846C99.2056 27.0906 98.3106 27.4534 98.3106 28.3397C98.3106 29.3049 99.1416 29.5383 100.041 29.6439C100.627 29.7049 101.061 29.8715 101.061 30.2774C101.061 30.7444 100.569 30.9228 100.047 30.9228C99.5252 30.9228 99.0031 30.7131 98.8068 30.2402L98.1142 30.5912C98.4415 31.3779 99.134 31.6485 100.034 31.6485C101.015 31.6485 101.885 31.2366 101.885 30.2774C101.885 29.2498 101.029 29.0164 100.11 28.9063L100.111 28.9048Z" fill="#231F20"/>
<path d="M105.355 27.1471C103.831 27.1471 103.089 28.2847 103.089 29.4164C103.089 30.5481 103.806 31.6366 105.355 31.6366C106.905 31.6366 107.602 30.5243 107.615 29.4104C107.628 28.2847 106.873 27.1471 105.355 27.1471ZM105.355 30.8916C104.317 30.8916 103.926 30.1347 103.908 29.4283C103.889 28.7026 104.317 27.8847 105.355 27.8847C106.393 27.8847 106.809 28.6966 106.797 29.4223C106.784 30.1302 106.393 30.8916 105.355 30.8916Z" fill="#231F20"/>
<path d="M109.812 27.2333H108.981V31.537H112.078V30.7875H109.812V27.2333Z" fill="#231F20"/>
<path d="M116.202 29.7049C116.202 30.4425 115.812 30.8916 115.126 30.8916C114.439 30.8916 113.986 30.4797 113.986 29.7049V27.2393H113.161V29.7049C113.161 31.0031 114.06 31.6292 115.118 31.6292C116.176 31.6292 117.025 30.9778 117.025 29.7049V27.2393H116.2V29.7049H116.202Z" fill="#231F20"/>
<path d="M118.336 27.9709H119.733V31.537H120.564V27.9709H121.962V27.2333H118.336V27.9709Z" fill="#231F20"/>
<path d="M124.052 27.2333H123.227V31.5385H124.052V27.2333Z" fill="#231F20"/>
<path d="M127.79 27.1471C126.266 27.1471 125.524 28.2847 125.524 29.4164C125.524 30.5481 126.241 31.6366 127.79 31.6366C129.34 31.6366 130.037 30.5243 130.05 29.4104C130.063 28.2847 129.308 27.1471 127.79 27.1471ZM127.79 30.8916C126.752 30.8916 126.361 30.1347 126.343 29.4283C126.324 28.7026 126.752 27.8847 127.79 27.8847C128.828 27.8847 129.244 28.6966 129.232 29.4223C129.219 30.1302 128.828 30.8916 127.79 30.8916Z" fill="#231F20"/>
<path d="M134.312 29.9012L132.153 27.2333H131.48V31.537H132.311V28.6342L134.628 31.5429V31.537H135.144V27.2259H134.312V29.9012Z" fill="#231F20"/>
<path d="M138.473 28.9048C137.944 28.8439 137.491 28.7383 137.491 28.3635C137.491 28.0438 137.786 27.791 138.404 27.791C138.882 27.791 139.298 28.0245 139.448 28.2713L140.109 27.9397C139.776 27.275 139.065 27.0846 138.378 27.0846C137.567 27.0906 136.672 27.4534 136.672 28.3397C136.672 29.3049 137.503 29.5383 138.403 29.6439C138.989 29.7049 139.422 29.8715 139.422 30.2774C139.422 30.7444 138.931 30.9228 138.409 30.9228C137.887 30.9228 137.364 30.7131 137.168 30.2402L136.475 30.5912C136.803 31.3779 137.495 31.6485 138.395 31.6485C139.377 31.6485 140.246 31.2366 140.246 30.2774C140.246 29.2498 139.39 29.0164 138.471 28.9063L138.473 28.9048Z" fill="#231F20"/>
<path d="M145.75 27.2259C145.057 27.2259 144.365 27.2319 143.672 27.2319V31.537H144.503V30.27H145.75C147.908 30.27 147.902 27.2259 145.75 27.2259ZM145.75 29.5264H144.503V28.0007H145.75C146.808 28.0007 146.814 29.5264 145.75 29.5264Z" fill="#231F20"/>
<path d="M149.956 29.5145L149.484 30.7816L149.004 29.5012L148.577 28.4989H147.739L149.068 31.5504H149.899L151.221 28.4989H150.383L149.956 29.5145Z" fill="#231F20"/>
<path d="M153.072 30.8975C152.833 30.8975 152.668 30.7563 152.668 30.4678V29.1576H153.531V28.5122H152.676V27.6512L151.909 27.7315V28.5122H151.33V29.1576H151.909V30.4678C151.909 31.2247 152.348 31.5995 153.023 31.5742C153.256 31.5682 153.438 31.531 153.659 31.4448L153.444 30.8053C153.332 30.8604 153.193 30.8975 153.073 30.8975H153.072Z" fill="#231F20"/>
<path d="M154.085 31.1503C154.085 31.7348 154.991 31.7348 154.991 31.1503C154.991 30.5659 154.085 30.5659 154.085 31.1503Z" fill="#231F20"/>
<path d="M158.416 27.2333H157.585V31.537H160.682V30.7875H158.416V27.2333Z" fill="#231F20"/>
<path d="M162.69 30.8975C162.451 30.8975 162.287 30.7563 162.287 30.4678V29.1576H163.15V28.5122H162.294V27.6512L161.527 27.7315V28.5122H160.949V29.1576H161.527V30.4678C161.527 31.2247 161.967 31.5995 162.641 31.5742C162.874 31.5682 163.057 31.531 163.278 31.4448L163.063 30.8053C162.95 30.8604 162.812 30.8975 162.692 30.8975H162.69Z" fill="#231F20"/>
<path d="M166.177 28.9182C165.995 28.6044 165.485 28.4319 165.157 28.4319C164.252 28.4319 163.577 28.9732 163.577 30.0187C163.577 31.0641 164.264 31.6054 165.176 31.6054C165.553 31.6054 165.937 31.482 166.176 31.1191L166.226 31.537H166.943V27.2378H166.174V28.9167L166.177 28.9182ZM165.227 30.9109C164.736 30.9109 164.346 30.5481 164.346 30.0187C164.346 29.4893 164.736 29.1339 165.227 29.1339C165.719 29.1339 166.127 29.4908 166.127 30.0187C166.127 30.5466 165.711 30.9109 165.227 30.9109Z" fill="#231F20"/>
<path d="M167.594 31.1503C167.594 31.7348 168.5 31.7348 168.5 31.1503C168.5 30.5659 167.594 30.5659 167.594 31.1503Z" fill="#231F20"/>
</g>
</g>
<defs>
<clipPath id="clip0_359_1765">
<rect width="168" height="36.12" fill="white" transform="translate(0.5 0.439941)"/>
</clipPath>
</defs>
</svg>
